{"title":"Pink Panther Classic Cartoons - Disc 1of5 - Part 1of7 (4:3 NTSC)","uid":10456217,"size":1073393664,"categoryP":"video","categoryS":"tv_shows","magnet":"?xt=urn:btih:10b6deba2471845e31234deb0cc67762170d6aa1&amp;dn=Pink+Panther+Classic+Cartoons+-+Disc+1of5+-+Part+1of7+%284%3A3+NTSC%29&amp;tr=udp%3A%2F%2Ftracker.openbittorrent.com%3A80&amp;tr=udp%3A%2F%2Fopen.demonii.com%3A1337&amp;tr=udp%3A%2F%2Ftracker.coppersurfer.tk%3A6969&amp;tr=udp%3A%2F%2Fexodus.desync.com%3A6969","seeders":1,"leechers":0,"uploader":"chilinvilin","files":1,"time":1404077923,"description":"Pink Panther Classic Cartoons - Disc 1of5 - Part 1of7 (4:3 NTSC)\n\nI will be uploading all 5 discs in the coming weeks..... Stay Tuned!!\n\n\n\n\n-The Pink Phink 1964-\n\n&quot;The Pink Panther disagrees with a decorator (The Little Man) over what color a house should be: blue or pink.&quot;\n\n\n-Pink Pajamas 1964-\n\n&quot;The Pink Panther sneaks into a house to stay the night and has to hide from its drunk owner.&quot;\n\n-We Give Pink Stamps 1965-\n\n&quot;The Pink Panther hides in a department store and spends the night trying to hide from the janitor.&quot;\n\n-Dial &quot;P&quot; For Pink (Part 1of2) 1965-\n\n&quot;A burglar tries to steal a safe where the Pink Panther is hiding.&quot;\n\n\n\n\n\nDisc 1of5 - Part 1of7 (4:3 NTSC)\nFormat                                   : MPEG-PS\nFile size                                : 1 024 MiB\nDuration                                 : 5mn 10s\nOverall bit rate mode                    : Variable\nOverall bit rate                         : 27.7 Mbps\n\nVideo\nID                                       : 224 (0xE0)\nFormat                                   : MPEG Video\nFormat version                           : Version 2\nFormat profile                           : Main@Main\nFormat settings, BVOP                    : Yes\nFormat settings, Matrix                  : Custom\nFormat settings, GOP                     : Variable\nDuration                                 : 5mn 10s\nBit rate mode                            : Variable\nBit rate                                 : 26.9 Mbps\nWidth                                    : 720 pixels\nHeight                                   : 480 pixels\nDisplay aspect ratio                     : 4:3\nFrame rate                               : 29.970 fps\nStandard                                 : NTSC\nColor space                              : YUV\nChroma subsampling                       : 4:2:0\nBit depth                                : 8 bits\nCompression mode                         : Lossy\nBits/(Pixel*Frame)                       : 2.599\nStream size                              : 996 MiB (97%)\nColor primaries                          : BT.601 NTSC\nTransfer characteristics                 : BT.601\nMatrix coefficients                      : BT.601\n\nAudio\nID                                       : 189 (0xBD)-128 (0x80)\nFormat                                   : AC-3\nFormat/Info                              : Audio Coding 3\nMode extension                           : CM (complete main)\nFormat settings, Endianness              : Big\nMuxing mode                              : DVD-Video\nDuration                                 : 5mn 10s\nBit rate mode                            : Constant\nBit rate                                 : 192 Kbps\nChannel(s)                               : 2 channels\nChannel positions                        : Front: L R\nSampling rate                            : 48.0 KHz\nBit depth                                : 16 bits\nCompression mode                         : Lossy\nDelay relative to video                  : -49ms\nStream size                              : 7.10 MiB (1%)\n\nText #1\nID                                       : 189 (0xBD)-33 (0x21)\nFormat                                   : RLE\nFormat/Info                              : Run-length encoding\nMuxing mode                              : DVD-Video\nDelay relative to video                  : 12s 730ms\n\nText #2\nID                                       : 189 (0xBD)-34 (0x22)\nFormat                                   : RLE\nFormat/Info                              : Run-length encoding\nMuxing mode                              : DVD-Video\nDelay relative to video                  : 12s 763ms\n\nText #3\nID                                       : 224 (0xE0)-CC3\nFormat                                   : EIA-608\nMuxing mode, more info                   : Muxed in Video #1\nBit rate mode                            : Constant\nStream size                              : 0.00 Byte (0%)","torrent":{"xt":"urn:btih:10b6deba2471845e31234deb0cc67762170d6aa1","amp;dn":"Pink+Panther+Classic+Cartoons+-+Disc+1of5+-+Part+1of7+%284%3A3+NTSC%29","amp;tr":["udp%3A%2F%2Ftracker.openbittorrent.com%3A80","udp%3A%2F%2Fopen.demonii.com%3A1337","udp%3A%2F%2Ftracker.coppersurfer.tk%3A6969","udp%3A%2F%2Fexodus.desync.com%3A6969"],"infoHash":"10b6deba2471845e31234deb0cc67762170d6aa1","infoHashBuffer":{"type":"Buffer","data":[16,182,222,186,36,113,132,94,49,35,77,235,12,198,119,98,23,13,106,161]},"announce":[],"urlList":[]}}